<?xml version="1.0" standalone="no"?>
<!DOCTYPE svg PUBLIC "-//W3C//DTD SVG 20010904//EN"
 "http://www.w3.org/TR/2001/REC-SVG-20010904/DTD/svg10.dtd">
<svg version="1.0" xmlns="http://www.w3.org/2000/svg"
 width="700.000000pt" height="700.000000pt" viewBox="0 0 700.000000 700.000000"
 preserveAspectRatio="xMidYMid meet">
<metadata>
Created by potrace 1.11, written by Peter Selinger 2001-2013
</metadata>
<g transform="translate(0.000000,700.000000) scale(0.100000,-0.100000)"
fill="#000000" stroke="none">
<path d="M3421 6988 c-72 -20 -142 -80 -183 -158 -23 -45 -23 -47 -23 -415 l0
-370 30 -54 c39 -71 95 -117 170 -140 143 -44 273 14 348 153 21 40 22 52 25
397 3 340 2 358 -18 408 -11 29 -27 59 -35 67 -8 8 -20 23 -27 32 -48 66 -191
106 -287 80z"/>
<path d="M1165 6051 c-59 -15 -106 -44 -150 -93 -52 -58 -75 -126 -71 -208 5
-102 28 -134 286 -392 261 -262 297 -288 402 -290 66 -1 95 5 144 31 145 77
198 239 125 384 -25 51 -71 103 -264 294 -254 252 -283 273 -387 279 -30 1
-68 -1 -85 -5z"/>
<path d="M5705 6053 c-77 -21 -118 -54 -333 -267 -197 -196 -280 -289 -289
-329 -25 -106 -22 -160 12 -226 52 -101 147 -162 259 -164 52 -1 74 4 127 31
54 26 101 68 295 264 265 268 279 288 278 408 0 58 -5 85 -23 122 -50 99 -138
158 -245 164 -33 1 -70 0 -81 -3z"/>
<path d="M3245 5229 c-580 -91 -1053 -436 -1314 -956 -126 -253 -181 -507
-176 -813 2 -85 5 -164 8 -175 3 -11 8 -42 11 -70 25 -188 120 -441 238 -632
134 -219 373 -458 578 -577 206 -120 457 -212 630 -232 30 -3 72 -10 93 -14
41 -9 398 -7 413 2 5 3 32 9 59 12 130 18 349 88 488 157 180 91 326 196 467
339 81 82 220 249 220 265 0 2 16 30 37 62 107 168 200 426 234 648 17 115 19
363 3 480 -13 95 -56 287 -74 330 -4 11 -18 47 -31 80 -55 145 -139 293 -243
430 -74 98 -220 246 -301 306 -33 24 -62 46 -65 50 -9 10 -99 69 -105 69 -4 0
-20 9 -36 21 -110 78 -420 190 -594 215 -27 3 -59 9 -70 11 -59 14 -367 9
-470 -8z m405 -574 c270 -37 480 -142 670 -334 108 -109 110 -112 167 -202 71
-113 146 -301 158 -398 3 -20 8 -56 11 -81 14 -92 11 -205 -10 -350 -3 -19
-16 -75 -30 -123 -108 -369 -406 -668 -779 -782 -82 -24 -99 -28 -212 -43 -86
-11 -256 -5 -340 12 -176 37 -313 95 -450 191 -207 144 -363 352 -440 590 -35
107 -39 127 -53 245 -47 406 144 830 481 1067 133 94 327 178 459 198 135 21
263 25 368 10z"/>
<path d="M210 3776 c-19 -7 -47 -18 -61 -24 -39 -16 -115 -106 -131 -156 -22
-65 -16 -163 12 -219 28 -56 80 -108 140 -139 44 -23 50 -23 406 -25 l361 -3
61 31 c181 90 221 313 83 462 -14 16 -48 41 -76 55 l-50 27 -355 2 c-277 2
-363 0 -390 -11z"/>
<path d="M6002 3759 c-218 -109 -222 -403 -7 -517 l50 -27 370 0 c350 0 372 1
410 20 116 57 178 160 170 284 -7 105 -65 191 -165 243 -44 23 -50 23 -406 25
l-361 3 -61 -31z"/>
<path d="M1555 1919 c-77 -29 -105 -54 -336 -286 -259 -263 -274 -284 -273
-403 1 -111 48 -194 144 -251 75 -45 183 -48 269 -8 49 24 453 414 515 499 68
93 79 207 28 306 -64 125 -223 190 -347 143z"/>
<path d="M5297 1929 c-96 -22 -193 -105 -214 -184 -26 -100 -23 -151 16 -230
25 -49 73 -103 263 -291 267 -264 287 -278 408 -278 147 0 252 87 281 231 15
73 3 140 -37 208 -12 22 -126 142 -252 268 -183 181 -241 232 -283 251 -62 28
-127 37 -182 25z"/>
<path d="M3444 1160 c-89 -20 -160 -76 -206 -163 -23 -41 -23 -47 -23 -412 0
-368 0 -370 23 -417 28 -55 95 -120 149 -144 23 -10 67 -16 113 -17 62 -1 83
3 126 25 72 38 136 111 152 176 4 15 7 189 7 387 l0 360 -30 54 c-16 29 -47
68 -69 87 -61 52 -169 81 -242 64z"/>
</g>
</svg>
